G04 #@! TF.GenerationSoftware,KiCad,Pcbnew,(5.1.10)-1*
G04 #@! TF.CreationDate,2021-08-17T11:35:39-05:00*
G04 #@! TF.ProjectId,Proteus_Little,50726f74-6575-4735-9f4c-6974746c652e,rev?*
G04 #@! TF.SameCoordinates,Original*
G04 #@! TF.FileFunction,Paste,Bot*
G04 #@! TF.FilePolarity,Positive*
%FSLAX46Y46*%
G04 Gerber Fmt 4.6, Leading zero omitted, Abs format (unit mm)*
G04 Created by KiCad (PCBNEW (5.1.10)-1) date 2021-08-17 11:35:39*
%MOMM*%
%LPD*%
G01*
G04 APERTURE LIST*
%ADD10C,0.010000*%
%ADD11R,0.480000X1.780000*%
%ADD12R,0.910000X1.220000*%
%ADD13R,1.100000X1.000000*%
%ADD14R,1.000000X1.100000*%
G04 APERTURE END LIST*
D10*
G36*
X125110600Y-115672430D02*
G01*
X125110600Y-119275000D01*
X120707460Y-119275000D01*
X120707460Y-115672430D01*
X125110600Y-115672430D01*
G37*
X125110600Y-115672430D02*
X125110600Y-119275000D01*
X120707460Y-119275000D01*
X120707460Y-115672430D01*
X125110600Y-115672430D01*
G36*
X126610600Y-116874812D02*
G01*
X126610600Y-118075000D01*
X125111290Y-118075000D01*
X125111290Y-116874812D01*
X126610600Y-116874812D01*
G37*
X126610600Y-116874812D02*
X126610600Y-118075000D01*
X125111290Y-118075000D01*
X125111290Y-116874812D01*
X126610600Y-116874812D01*
G36*
X120710600Y-116874226D02*
G01*
X120710600Y-118075000D01*
X119205830Y-118075000D01*
X119205830Y-116874226D01*
X120710600Y-116874226D01*
G37*
X120710600Y-116874226D02*
X120710600Y-118075000D01*
X119205830Y-118075000D01*
X119205830Y-116874226D01*
X120710600Y-116874226D01*
D11*
X119679000Y-103877220D03*
X119029000Y-103877220D03*
X118379000Y-103877220D03*
X117729000Y-103877220D03*
X117079000Y-103877220D03*
X116429000Y-103877220D03*
X115779000Y-103877220D03*
X115779000Y-110717220D03*
X116429000Y-110717220D03*
X117079000Y-110717220D03*
X117729000Y-110717220D03*
X118379000Y-110717220D03*
X119029000Y-110717220D03*
X119679000Y-110717220D03*
D12*
X113060350Y-130847600D03*
X116335350Y-130847600D03*
X111826850Y-130847600D03*
X108551850Y-130847600D03*
X104360850Y-135610100D03*
X107635850Y-135610100D03*
X104170350Y-130847600D03*
X107445350Y-130847600D03*
G36*
G01*
X167292020Y-130927475D02*
X167292020Y-130260725D01*
G75*
G02*
X167403145Y-130149600I111125J0D01*
G01*
X168069895Y-130149600D01*
G75*
G02*
X168181020Y-130260725I0J-111125D01*
G01*
X168181020Y-130927475D01*
G75*
G02*
X168069895Y-131038600I-111125J0D01*
G01*
X167403145Y-131038600D01*
G75*
G02*
X167292020Y-130927475I0J111125D01*
G01*
G37*
G36*
G01*
X165768020Y-130927475D02*
X165768020Y-130260725D01*
G75*
G02*
X165879145Y-130149600I111125J0D01*
G01*
X166545895Y-130149600D01*
G75*
G02*
X166657020Y-130260725I0J-111125D01*
G01*
X166657020Y-130927475D01*
G75*
G02*
X166545895Y-131038600I-111125J0D01*
G01*
X165879145Y-131038600D01*
G75*
G02*
X165768020Y-130927475I0J111125D01*
G01*
G37*
G36*
G01*
X170632120Y-130932555D02*
X170632120Y-130265805D01*
G75*
G02*
X170743245Y-130154680I111125J0D01*
G01*
X171409995Y-130154680D01*
G75*
G02*
X171521120Y-130265805I0J-111125D01*
G01*
X171521120Y-130932555D01*
G75*
G02*
X171409995Y-131043680I-111125J0D01*
G01*
X170743245Y-131043680D01*
G75*
G02*
X170632120Y-130932555I0J111125D01*
G01*
G37*
G36*
G01*
X169108120Y-130932555D02*
X169108120Y-130265805D01*
G75*
G02*
X169219245Y-130154680I111125J0D01*
G01*
X169885995Y-130154680D01*
G75*
G02*
X169997120Y-130265805I0J-111125D01*
G01*
X169997120Y-130932555D01*
G75*
G02*
X169885995Y-131043680I-111125J0D01*
G01*
X169219245Y-131043680D01*
G75*
G02*
X169108120Y-130932555I0J111125D01*
G01*
G37*
G36*
G01*
X126669800Y-105896625D02*
X126669800Y-106563375D01*
G75*
G02*
X126558675Y-106674500I-111125J0D01*
G01*
X125891925Y-106674500D01*
G75*
G02*
X125780800Y-106563375I0J111125D01*
G01*
X125780800Y-105896625D01*
G75*
G02*
X125891925Y-105785500I111125J0D01*
G01*
X126558675Y-105785500D01*
G75*
G02*
X126669800Y-105896625I0J-111125D01*
G01*
G37*
G36*
G01*
X128193800Y-105896625D02*
X128193800Y-106563375D01*
G75*
G02*
X128082675Y-106674500I-111125J0D01*
G01*
X127415925Y-106674500D01*
G75*
G02*
X127304800Y-106563375I0J111125D01*
G01*
X127304800Y-105896625D01*
G75*
G02*
X127415925Y-105785500I111125J0D01*
G01*
X128082675Y-105785500D01*
G75*
G02*
X128193800Y-105896625I0J-111125D01*
G01*
G37*
G36*
G01*
X126669800Y-103896625D02*
X126669800Y-104563375D01*
G75*
G02*
X126558675Y-104674500I-111125J0D01*
G01*
X125891925Y-104674500D01*
G75*
G02*
X125780800Y-104563375I0J111125D01*
G01*
X125780800Y-103896625D01*
G75*
G02*
X125891925Y-103785500I111125J0D01*
G01*
X126558675Y-103785500D01*
G75*
G02*
X126669800Y-103896625I0J-111125D01*
G01*
G37*
G36*
G01*
X128193800Y-103896625D02*
X128193800Y-104563375D01*
G75*
G02*
X128082675Y-104674500I-111125J0D01*
G01*
X127415925Y-104674500D01*
G75*
G02*
X127304800Y-104563375I0J111125D01*
G01*
X127304800Y-103896625D01*
G75*
G02*
X127415925Y-103785500I111125J0D01*
G01*
X128082675Y-103785500D01*
G75*
G02*
X128193800Y-103896625I0J-111125D01*
G01*
G37*
G36*
G01*
X126669800Y-101896625D02*
X126669800Y-102563375D01*
G75*
G02*
X126558675Y-102674500I-111125J0D01*
G01*
X125891925Y-102674500D01*
G75*
G02*
X125780800Y-102563375I0J111125D01*
G01*
X125780800Y-101896625D01*
G75*
G02*
X125891925Y-101785500I111125J0D01*
G01*
X126558675Y-101785500D01*
G75*
G02*
X126669800Y-101896625I0J-111125D01*
G01*
G37*
G36*
G01*
X128193800Y-101896625D02*
X128193800Y-102563375D01*
G75*
G02*
X128082675Y-102674500I-111125J0D01*
G01*
X127415925Y-102674500D01*
G75*
G02*
X127304800Y-102563375I0J111125D01*
G01*
X127304800Y-101896625D01*
G75*
G02*
X127415925Y-101785500I111125J0D01*
G01*
X128082675Y-101785500D01*
G75*
G02*
X128193800Y-101896625I0J-111125D01*
G01*
G37*
G36*
G01*
X126669800Y-99896625D02*
X126669800Y-100563375D01*
G75*
G02*
X126558675Y-100674500I-111125J0D01*
G01*
X125891925Y-100674500D01*
G75*
G02*
X125780800Y-100563375I0J111125D01*
G01*
X125780800Y-99896625D01*
G75*
G02*
X125891925Y-99785500I111125J0D01*
G01*
X126558675Y-99785500D01*
G75*
G02*
X126669800Y-99896625I0J-111125D01*
G01*
G37*
G36*
G01*
X128193800Y-99896625D02*
X128193800Y-100563375D01*
G75*
G02*
X128082675Y-100674500I-111125J0D01*
G01*
X127415925Y-100674500D01*
G75*
G02*
X127304800Y-100563375I0J111125D01*
G01*
X127304800Y-99896625D01*
G75*
G02*
X127415925Y-99785500I111125J0D01*
G01*
X128082675Y-99785500D01*
G75*
G02*
X128193800Y-99896625I0J-111125D01*
G01*
G37*
D13*
X119678080Y-101950520D03*
X121378080Y-101950520D03*
X102974850Y-135927600D03*
X101274850Y-135927600D03*
X101528850Y-126910600D03*
X103228850Y-126910600D03*
X97902796Y-126910600D03*
X99602796Y-126910600D03*
X99609350Y-135927600D03*
X97909350Y-135927600D03*
X105148350Y-126910600D03*
X106848350Y-126910600D03*
X106310800Y-137629900D03*
X104610800Y-137629900D03*
X112387350Y-126910600D03*
X114087350Y-126910600D03*
X108767850Y-126910600D03*
X110467850Y-126910600D03*
X91178350Y-135927600D03*
X92878350Y-135927600D03*
X94543850Y-135927600D03*
X96243850Y-135927600D03*
X94226350Y-126910600D03*
X95926350Y-126910600D03*
X90670350Y-126910600D03*
X92370350Y-126910600D03*
D14*
X93298350Y-106121600D03*
X93298350Y-107821600D03*
X91329850Y-106121600D03*
X91329850Y-107821600D03*
X97235350Y-106121600D03*
X97235350Y-107821600D03*
X95266850Y-106121600D03*
X95266850Y-107821600D03*
X82503350Y-106121600D03*
X82503350Y-107821600D03*
X80534850Y-106121600D03*
X80534850Y-107821600D03*
X86440350Y-106121600D03*
X86440350Y-107821600D03*
X84471850Y-106121600D03*
X84471850Y-107821600D03*
G36*
G01*
X188040350Y-132133475D02*
X188040350Y-131466725D01*
G75*
G02*
X188151475Y-131355600I111125J0D01*
G01*
X188818225Y-131355600D01*
G75*
G02*
X188929350Y-131466725I0J-111125D01*
G01*
X188929350Y-132133475D01*
G75*
G02*
X188818225Y-132244600I-111125J0D01*
G01*
X188151475Y-132244600D01*
G75*
G02*
X188040350Y-132133475I0J111125D01*
G01*
G37*
G36*
G01*
X186516350Y-132133475D02*
X186516350Y-131466725D01*
G75*
G02*
X186627475Y-131355600I111125J0D01*
G01*
X187294225Y-131355600D01*
G75*
G02*
X187405350Y-131466725I0J-111125D01*
G01*
X187405350Y-132133475D01*
G75*
G02*
X187294225Y-132244600I-111125J0D01*
G01*
X186627475Y-132244600D01*
G75*
G02*
X186516350Y-132133475I0J111125D01*
G01*
G37*
G36*
G01*
X188040350Y-127307475D02*
X188040350Y-126640725D01*
G75*
G02*
X188151475Y-126529600I111125J0D01*
G01*
X188818225Y-126529600D01*
G75*
G02*
X188929350Y-126640725I0J-111125D01*
G01*
X188929350Y-127307475D01*
G75*
G02*
X188818225Y-127418600I-111125J0D01*
G01*
X188151475Y-127418600D01*
G75*
G02*
X188040350Y-127307475I0J111125D01*
G01*
G37*
G36*
G01*
X186516350Y-127307475D02*
X186516350Y-126640725D01*
G75*
G02*
X186627475Y-126529600I111125J0D01*
G01*
X187294225Y-126529600D01*
G75*
G02*
X187405350Y-126640725I0J-111125D01*
G01*
X187405350Y-127307475D01*
G75*
G02*
X187294225Y-127418600I-111125J0D01*
G01*
X186627475Y-127418600D01*
G75*
G02*
X186516350Y-127307475I0J111125D01*
G01*
G37*
D13*
X187634850Y-125259600D03*
X189334850Y-125259600D03*
G36*
G01*
X193501350Y-135879975D02*
X193501350Y-135213225D01*
G75*
G02*
X193612475Y-135102100I111125J0D01*
G01*
X194279225Y-135102100D01*
G75*
G02*
X194390350Y-135213225I0J-111125D01*
G01*
X194390350Y-135879975D01*
G75*
G02*
X194279225Y-135991100I-111125J0D01*
G01*
X193612475Y-135991100D01*
G75*
G02*
X193501350Y-135879975I0J111125D01*
G01*
G37*
G36*
G01*
X191977350Y-135879975D02*
X191977350Y-135213225D01*
G75*
G02*
X192088475Y-135102100I111125J0D01*
G01*
X192755225Y-135102100D01*
G75*
G02*
X192866350Y-135213225I0J-111125D01*
G01*
X192866350Y-135879975D01*
G75*
G02*
X192755225Y-135991100I-111125J0D01*
G01*
X192088475Y-135991100D01*
G75*
G02*
X191977350Y-135879975I0J111125D01*
G01*
G37*
G36*
G01*
X196803350Y-135879975D02*
X196803350Y-135213225D01*
G75*
G02*
X196914475Y-135102100I111125J0D01*
G01*
X197581225Y-135102100D01*
G75*
G02*
X197692350Y-135213225I0J-111125D01*
G01*
X197692350Y-135879975D01*
G75*
G02*
X197581225Y-135991100I-111125J0D01*
G01*
X196914475Y-135991100D01*
G75*
G02*
X196803350Y-135879975I0J111125D01*
G01*
G37*
G36*
G01*
X195279350Y-135879975D02*
X195279350Y-135213225D01*
G75*
G02*
X195390475Y-135102100I111125J0D01*
G01*
X196057225Y-135102100D01*
G75*
G02*
X196168350Y-135213225I0J-111125D01*
G01*
X196168350Y-135879975D01*
G75*
G02*
X196057225Y-135991100I-111125J0D01*
G01*
X195390475Y-135991100D01*
G75*
G02*
X195279350Y-135879975I0J111125D01*
G01*
G37*
G36*
G01*
X200105350Y-135879975D02*
X200105350Y-135213225D01*
G75*
G02*
X200216475Y-135102100I111125J0D01*
G01*
X200883225Y-135102100D01*
G75*
G02*
X200994350Y-135213225I0J-111125D01*
G01*
X200994350Y-135879975D01*
G75*
G02*
X200883225Y-135991100I-111125J0D01*
G01*
X200216475Y-135991100D01*
G75*
G02*
X200105350Y-135879975I0J111125D01*
G01*
G37*
G36*
G01*
X198581350Y-135879975D02*
X198581350Y-135213225D01*
G75*
G02*
X198692475Y-135102100I111125J0D01*
G01*
X199359225Y-135102100D01*
G75*
G02*
X199470350Y-135213225I0J-111125D01*
G01*
X199470350Y-135879975D01*
G75*
G02*
X199359225Y-135991100I-111125J0D01*
G01*
X198692475Y-135991100D01*
G75*
G02*
X198581350Y-135879975I0J111125D01*
G01*
G37*
G36*
G01*
X203470850Y-135879975D02*
X203470850Y-135213225D01*
G75*
G02*
X203581975Y-135102100I111125J0D01*
G01*
X204248725Y-135102100D01*
G75*
G02*
X204359850Y-135213225I0J-111125D01*
G01*
X204359850Y-135879975D01*
G75*
G02*
X204248725Y-135991100I-111125J0D01*
G01*
X203581975Y-135991100D01*
G75*
G02*
X203470850Y-135879975I0J111125D01*
G01*
G37*
G36*
G01*
X201946850Y-135879975D02*
X201946850Y-135213225D01*
G75*
G02*
X202057975Y-135102100I111125J0D01*
G01*
X202724725Y-135102100D01*
G75*
G02*
X202835850Y-135213225I0J-111125D01*
G01*
X202835850Y-135879975D01*
G75*
G02*
X202724725Y-135991100I-111125J0D01*
G01*
X202057975Y-135991100D01*
G75*
G02*
X201946850Y-135879975I0J111125D01*
G01*
G37*
G36*
G01*
X190707350Y-126640725D02*
X190707350Y-127307475D01*
G75*
G02*
X190596225Y-127418600I-111125J0D01*
G01*
X189929475Y-127418600D01*
G75*
G02*
X189818350Y-127307475I0J111125D01*
G01*
X189818350Y-126640725D01*
G75*
G02*
X189929475Y-126529600I111125J0D01*
G01*
X190596225Y-126529600D01*
G75*
G02*
X190707350Y-126640725I0J-111125D01*
G01*
G37*
G36*
G01*
X192231350Y-126640725D02*
X192231350Y-127307475D01*
G75*
G02*
X192120225Y-127418600I-111125J0D01*
G01*
X191453475Y-127418600D01*
G75*
G02*
X191342350Y-127307475I0J111125D01*
G01*
X191342350Y-126640725D01*
G75*
G02*
X191453475Y-126529600I111125J0D01*
G01*
X192120225Y-126529600D01*
G75*
G02*
X192231350Y-126640725I0J-111125D01*
G01*
G37*
X102157900Y-132003800D03*
X100457900Y-132003800D03*
D14*
X121094500Y-130302900D03*
X121094500Y-132002900D03*
G36*
G01*
X190707350Y-131466725D02*
X190707350Y-132133475D01*
G75*
G02*
X190596225Y-132244600I-111125J0D01*
G01*
X189929475Y-132244600D01*
G75*
G02*
X189818350Y-132133475I0J111125D01*
G01*
X189818350Y-131466725D01*
G75*
G02*
X189929475Y-131355600I111125J0D01*
G01*
X190596225Y-131355600D01*
G75*
G02*
X190707350Y-131466725I0J-111125D01*
G01*
G37*
G36*
G01*
X192231350Y-131466725D02*
X192231350Y-132133475D01*
G75*
G02*
X192120225Y-132244600I-111125J0D01*
G01*
X191453475Y-132244600D01*
G75*
G02*
X191342350Y-132133475I0J111125D01*
G01*
X191342350Y-131466725D01*
G75*
G02*
X191453475Y-131355600I111125J0D01*
G01*
X192120225Y-131355600D01*
G75*
G02*
X192231350Y-131466725I0J-111125D01*
G01*
G37*
G36*
G01*
X194644350Y-127307475D02*
X194644350Y-126640725D01*
G75*
G02*
X194755475Y-126529600I111125J0D01*
G01*
X195422225Y-126529600D01*
G75*
G02*
X195533350Y-126640725I0J-111125D01*
G01*
X195533350Y-127307475D01*
G75*
G02*
X195422225Y-127418600I-111125J0D01*
G01*
X194755475Y-127418600D01*
G75*
G02*
X194644350Y-127307475I0J111125D01*
G01*
G37*
G36*
G01*
X193120350Y-127307475D02*
X193120350Y-126640725D01*
G75*
G02*
X193231475Y-126529600I111125J0D01*
G01*
X193898225Y-126529600D01*
G75*
G02*
X194009350Y-126640725I0J-111125D01*
G01*
X194009350Y-127307475D01*
G75*
G02*
X193898225Y-127418600I-111125J0D01*
G01*
X193231475Y-127418600D01*
G75*
G02*
X193120350Y-127307475I0J111125D01*
G01*
G37*
G36*
G01*
X198009850Y-127307475D02*
X198009850Y-126640725D01*
G75*
G02*
X198120975Y-126529600I111125J0D01*
G01*
X198787725Y-126529600D01*
G75*
G02*
X198898850Y-126640725I0J-111125D01*
G01*
X198898850Y-127307475D01*
G75*
G02*
X198787725Y-127418600I-111125J0D01*
G01*
X198120975Y-127418600D01*
G75*
G02*
X198009850Y-127307475I0J111125D01*
G01*
G37*
G36*
G01*
X196485850Y-127307475D02*
X196485850Y-126640725D01*
G75*
G02*
X196596975Y-126529600I111125J0D01*
G01*
X197263725Y-126529600D01*
G75*
G02*
X197374850Y-126640725I0J-111125D01*
G01*
X197374850Y-127307475D01*
G75*
G02*
X197263725Y-127418600I-111125J0D01*
G01*
X196596975Y-127418600D01*
G75*
G02*
X196485850Y-127307475I0J111125D01*
G01*
G37*
G36*
G01*
X201311850Y-127307475D02*
X201311850Y-126640725D01*
G75*
G02*
X201422975Y-126529600I111125J0D01*
G01*
X202089725Y-126529600D01*
G75*
G02*
X202200850Y-126640725I0J-111125D01*
G01*
X202200850Y-127307475D01*
G75*
G02*
X202089725Y-127418600I-111125J0D01*
G01*
X201422975Y-127418600D01*
G75*
G02*
X201311850Y-127307475I0J111125D01*
G01*
G37*
G36*
G01*
X199787850Y-127307475D02*
X199787850Y-126640725D01*
G75*
G02*
X199898975Y-126529600I111125J0D01*
G01*
X200565725Y-126529600D01*
G75*
G02*
X200676850Y-126640725I0J-111125D01*
G01*
X200676850Y-127307475D01*
G75*
G02*
X200565725Y-127418600I-111125J0D01*
G01*
X199898975Y-127418600D01*
G75*
G02*
X199787850Y-127307475I0J111125D01*
G01*
G37*
G36*
G01*
X204613850Y-127307475D02*
X204613850Y-126640725D01*
G75*
G02*
X204724975Y-126529600I111125J0D01*
G01*
X205391725Y-126529600D01*
G75*
G02*
X205502850Y-126640725I0J-111125D01*
G01*
X205502850Y-127307475D01*
G75*
G02*
X205391725Y-127418600I-111125J0D01*
G01*
X204724975Y-127418600D01*
G75*
G02*
X204613850Y-127307475I0J111125D01*
G01*
G37*
G36*
G01*
X203089850Y-127307475D02*
X203089850Y-126640725D01*
G75*
G02*
X203200975Y-126529600I111125J0D01*
G01*
X203867725Y-126529600D01*
G75*
G02*
X203978850Y-126640725I0J-111125D01*
G01*
X203978850Y-127307475D01*
G75*
G02*
X203867725Y-127418600I-111125J0D01*
G01*
X203200975Y-127418600D01*
G75*
G02*
X203089850Y-127307475I0J111125D01*
G01*
G37*
D13*
X132883350Y-135483100D03*
X131183350Y-135483100D03*
X137899850Y-135483100D03*
X136199850Y-135483100D03*
M02*
