%FSLAX45Y45*%
G04 Gerber Fmt 4.5, Leading zero omitted, Abs format (unit mm)*
G04 Created by KiCad (PCBNEW (5.1.10)-1) date 2021-08-17 11:35:52*
%MOMM*%
%LPD*%
G01*
G04 APERTURE LIST*
%TA.AperFunction,Profile*%
%ADD10C,0.050000*%
%TD*%
%ADD11C,0.200000*%
%ADD12C,0.300000*%
G04 APERTURE END LIST*
D10*
X6548535Y-7035360D02*
X6548535Y-13965360D01*
X6658535Y-14075360D02*
G75*
G02*
X6548535Y-13965360I0J110000D01*
G01*
X6658535Y-14075360D02*
X23041685Y-14075360D01*
X23151685Y-13965360D02*
G75*
G02*
X23041685Y-14075360I-110000J0D01*
G01*
X23151685Y-13965360D02*
X23151685Y-7035360D01*
X23041685Y-6925360D02*
G75*
G02*
X23151685Y-7035360I0J-110000D01*
G01*
X23041685Y-6925360D02*
X6658535Y-6925360D01*
X6548535Y-7035360D02*
G75*
G02*
X6658535Y-6925360I110000J0D01*
G01*
D11*
X8298235Y-13035460D02*
X8778235Y-13515460D01*
X8778235Y-13035460D02*
X8298235Y-13515460D01*
X20938235Y-13035460D02*
X21418235Y-13515460D01*
X21418235Y-13035460D02*
X20938235Y-13515460D01*
D12*
X6832463Y-14543574D02*
X6832463Y-14243574D01*
X6903892Y-14243574D01*
X6946749Y-14257860D01*
X6975321Y-14286431D01*
X6989606Y-14315003D01*
X7003892Y-14372146D01*
X7003892Y-14415003D01*
X6989606Y-14472146D01*
X6975321Y-14500717D01*
X6946749Y-14529289D01*
X6903892Y-14543574D01*
X6832463Y-14543574D01*
X7132463Y-14543574D02*
X7132463Y-14343574D01*
X7132463Y-14400717D02*
X7146749Y-14372146D01*
X7161035Y-14357860D01*
X7189606Y-14343574D01*
X7218178Y-14343574D01*
X7318178Y-14543574D02*
X7318178Y-14343574D01*
X7318178Y-14243574D02*
X7303892Y-14257860D01*
X7318178Y-14272146D01*
X7332463Y-14257860D01*
X7318178Y-14243574D01*
X7318178Y-14272146D01*
X7503892Y-14543574D02*
X7475321Y-14529289D01*
X7461035Y-14500717D01*
X7461035Y-14243574D01*
X7661035Y-14543574D02*
X7632463Y-14529289D01*
X7618178Y-14500717D01*
X7618178Y-14243574D01*
X8003892Y-14543574D02*
X8003892Y-14243574D01*
X8103892Y-14457860D01*
X8203892Y-14243574D01*
X8203892Y-14543574D01*
X8475321Y-14543574D02*
X8475321Y-14386431D01*
X8461035Y-14357860D01*
X8432463Y-14343574D01*
X8375321Y-14343574D01*
X8346749Y-14357860D01*
X8475321Y-14529289D02*
X8446749Y-14543574D01*
X8375321Y-14543574D01*
X8346749Y-14529289D01*
X8332463Y-14500717D01*
X8332463Y-14472146D01*
X8346749Y-14443574D01*
X8375321Y-14429289D01*
X8446749Y-14429289D01*
X8475321Y-14415003D01*
X8618178Y-14343574D02*
X8618178Y-14643574D01*
X8618178Y-14357860D02*
X8646749Y-14343574D01*
X8703892Y-14343574D01*
X8732463Y-14357860D01*
X8746749Y-14372146D01*
X8761035Y-14400717D01*
X8761035Y-14486431D01*
X8746749Y-14515003D01*
X8732463Y-14529289D01*
X8703892Y-14543574D01*
X8646749Y-14543574D01*
X8618178Y-14529289D01*
X8889606Y-14515003D02*
X8903892Y-14529289D01*
X8889606Y-14543574D01*
X8875321Y-14529289D01*
X8889606Y-14515003D01*
X8889606Y-14543574D01*
X8889606Y-14357860D02*
X8903892Y-14372146D01*
X8889606Y-14386431D01*
X8875321Y-14372146D01*
X8889606Y-14357860D01*
X8889606Y-14386431D01*
X6066035Y-14797860D02*
X6546035Y-15277860D01*
X6546035Y-14797860D02*
X6066035Y-15277860D01*
X6961035Y-14973574D02*
X6961035Y-15173574D01*
X6889606Y-14859289D02*
X6818178Y-15073574D01*
X7003892Y-15073574D01*
X7118178Y-15145003D02*
X7132463Y-15159289D01*
X7118178Y-15173574D01*
X7103892Y-15159289D01*
X7118178Y-15145003D01*
X7118178Y-15173574D01*
X7303892Y-15002146D02*
X7275321Y-14987860D01*
X7261035Y-14973574D01*
X7246749Y-14945003D01*
X7246749Y-14930717D01*
X7261035Y-14902146D01*
X7275321Y-14887860D01*
X7303892Y-14873574D01*
X7361035Y-14873574D01*
X7389606Y-14887860D01*
X7403892Y-14902146D01*
X7418178Y-14930717D01*
X7418178Y-14945003D01*
X7403892Y-14973574D01*
X7389606Y-14987860D01*
X7361035Y-15002146D01*
X7303892Y-15002146D01*
X7275321Y-15016431D01*
X7261035Y-15030717D01*
X7246749Y-15059289D01*
X7246749Y-15116431D01*
X7261035Y-15145003D01*
X7275321Y-15159289D01*
X7303892Y-15173574D01*
X7361035Y-15173574D01*
X7389606Y-15159289D01*
X7403892Y-15145003D01*
X7418178Y-15116431D01*
X7418178Y-15059289D01*
X7403892Y-15030717D01*
X7389606Y-15016431D01*
X7361035Y-15002146D01*
X7603892Y-14873574D02*
X7632463Y-14873574D01*
X7661035Y-14887860D01*
X7675321Y-14902146D01*
X7689606Y-14930717D01*
X7703892Y-14987860D01*
X7703892Y-15059289D01*
X7689606Y-15116431D01*
X7675321Y-15145003D01*
X7661035Y-15159289D01*
X7632463Y-15173574D01*
X7603892Y-15173574D01*
X7575321Y-15159289D01*
X7561035Y-15145003D01*
X7546749Y-15116431D01*
X7532463Y-15059289D01*
X7532463Y-14987860D01*
X7546749Y-14930717D01*
X7561035Y-14902146D01*
X7575321Y-14887860D01*
X7603892Y-14873574D01*
X7889606Y-14873574D02*
X7918178Y-14873574D01*
X7946749Y-14887860D01*
X7961035Y-14902146D01*
X7975321Y-14930717D01*
X7989606Y-14987860D01*
X7989606Y-15059289D01*
X7975321Y-15116431D01*
X7961035Y-15145003D01*
X7946749Y-15159289D01*
X7918178Y-15173574D01*
X7889606Y-15173574D01*
X7861035Y-15159289D01*
X7846749Y-15145003D01*
X7832463Y-15116431D01*
X7818178Y-15059289D01*
X7818178Y-14987860D01*
X7832463Y-14930717D01*
X7846749Y-14902146D01*
X7861035Y-14887860D01*
X7889606Y-14873574D01*
X8118178Y-15173574D02*
X8118178Y-14973574D01*
X8118178Y-15002146D02*
X8132463Y-14987860D01*
X8161035Y-14973574D01*
X8203892Y-14973574D01*
X8232463Y-14987860D01*
X8246749Y-15016431D01*
X8246749Y-15173574D01*
X8246749Y-15016431D02*
X8261035Y-14987860D01*
X8289606Y-14973574D01*
X8332463Y-14973574D01*
X8361035Y-14987860D01*
X8375321Y-15016431D01*
X8375321Y-15173574D01*
X8518178Y-15173574D02*
X8518178Y-14973574D01*
X8518178Y-15002146D02*
X8532463Y-14987860D01*
X8561035Y-14973574D01*
X8603892Y-14973574D01*
X8632463Y-14987860D01*
X8646749Y-15016431D01*
X8646749Y-15173574D01*
X8646749Y-15016431D02*
X8661035Y-14987860D01*
X8689606Y-14973574D01*
X8732463Y-14973574D01*
X8761035Y-14987860D01*
X8775321Y-15016431D01*
X8775321Y-15173574D01*
X9361035Y-14859289D02*
X9103892Y-15245003D01*
X9746749Y-14873574D02*
X9775321Y-14873574D01*
X9803892Y-14887860D01*
X9818178Y-14902146D01*
X9832463Y-14930717D01*
X9846749Y-14987860D01*
X9846749Y-15059289D01*
X9832463Y-15116431D01*
X9818178Y-15145003D01*
X9803892Y-15159289D01*
X9775321Y-15173574D01*
X9746749Y-15173574D01*
X9718178Y-15159289D01*
X9703892Y-15145003D01*
X9689606Y-15116431D01*
X9675321Y-15059289D01*
X9675321Y-14987860D01*
X9689606Y-14930717D01*
X9703892Y-14902146D01*
X9718178Y-14887860D01*
X9746749Y-14873574D01*
X9975321Y-15145003D02*
X9989606Y-15159289D01*
X9975321Y-15173574D01*
X9961035Y-15159289D01*
X9975321Y-15145003D01*
X9975321Y-15173574D01*
X10275321Y-15173574D02*
X10103892Y-15173574D01*
X10189606Y-15173574D02*
X10189606Y-14873574D01*
X10161035Y-14916431D01*
X10132463Y-14945003D01*
X10103892Y-14959289D01*
X10446749Y-15002146D02*
X10418178Y-14987860D01*
X10403892Y-14973574D01*
X10389606Y-14945003D01*
X10389606Y-14930717D01*
X10403892Y-14902146D01*
X10418178Y-14887860D01*
X10446749Y-14873574D01*
X10503892Y-14873574D01*
X10532463Y-14887860D01*
X10546749Y-14902146D01*
X10561035Y-14930717D01*
X10561035Y-14945003D01*
X10546749Y-14973574D01*
X10532463Y-14987860D01*
X10503892Y-15002146D01*
X10446749Y-15002146D01*
X10418178Y-15016431D01*
X10403892Y-15030717D01*
X10389606Y-15059289D01*
X10389606Y-15116431D01*
X10403892Y-15145003D01*
X10418178Y-15159289D01*
X10446749Y-15173574D01*
X10503892Y-15173574D01*
X10532463Y-15159289D01*
X10546749Y-15145003D01*
X10561035Y-15116431D01*
X10561035Y-15059289D01*
X10546749Y-15030717D01*
X10532463Y-15016431D01*
X10503892Y-15002146D01*
X10703892Y-15173574D02*
X10761035Y-15173574D01*
X10789606Y-15159289D01*
X10803892Y-15145003D01*
X10832463Y-15102146D01*
X10846749Y-15045003D01*
X10846749Y-14930717D01*
X10832463Y-14902146D01*
X10818178Y-14887860D01*
X10789606Y-14873574D01*
X10732463Y-14873574D01*
X10703892Y-14887860D01*
X10689606Y-14902146D01*
X10675321Y-14930717D01*
X10675321Y-15002146D01*
X10689606Y-15030717D01*
X10703892Y-15045003D01*
X10732463Y-15059289D01*
X10789606Y-15059289D01*
X10818178Y-15045003D01*
X10832463Y-15030717D01*
X10846749Y-15002146D01*
X11032463Y-14873574D02*
X11061035Y-14873574D01*
X11089606Y-14887860D01*
X11103892Y-14902146D01*
X11118178Y-14930717D01*
X11132463Y-14987860D01*
X11132463Y-15059289D01*
X11118178Y-15116431D01*
X11103892Y-15145003D01*
X11089606Y-15159289D01*
X11061035Y-15173574D01*
X11032463Y-15173574D01*
X11003892Y-15159289D01*
X10989606Y-15145003D01*
X10975321Y-15116431D01*
X10961035Y-15059289D01*
X10961035Y-14987860D01*
X10975321Y-14930717D01*
X10989606Y-14902146D01*
X11003892Y-14887860D01*
X11032463Y-14873574D01*
X11246749Y-14873574D02*
X11246749Y-14930717D01*
X11361035Y-14873574D02*
X11361035Y-14930717D01*
X11803892Y-15287860D02*
X11789606Y-15273574D01*
X11761035Y-15230717D01*
X11746749Y-15202146D01*
X11732463Y-15159289D01*
X11718178Y-15087860D01*
X11718178Y-15030717D01*
X11732463Y-14959289D01*
X11746749Y-14916431D01*
X11761035Y-14887860D01*
X11789606Y-14845003D01*
X11803892Y-14830717D01*
X11903892Y-14902146D02*
X11918178Y-14887860D01*
X11946749Y-14873574D01*
X12018178Y-14873574D01*
X12046749Y-14887860D01*
X12061035Y-14902146D01*
X12075321Y-14930717D01*
X12075321Y-14959289D01*
X12061035Y-15002146D01*
X11889606Y-15173574D01*
X12075321Y-15173574D01*
X12432463Y-15173574D02*
X12432463Y-14873574D01*
X12561035Y-15173574D02*
X12561035Y-15016431D01*
X12546749Y-14987860D01*
X12518178Y-14973574D01*
X12475321Y-14973574D01*
X12446749Y-14987860D01*
X12432463Y-15002146D01*
X12746749Y-15173574D02*
X12718178Y-15159289D01*
X12703892Y-15145003D01*
X12689606Y-15116431D01*
X12689606Y-15030717D01*
X12703892Y-15002146D01*
X12718178Y-14987860D01*
X12746749Y-14973574D01*
X12789606Y-14973574D01*
X12818178Y-14987860D01*
X12832463Y-15002146D01*
X12846749Y-15030717D01*
X12846749Y-15116431D01*
X12832463Y-15145003D01*
X12818178Y-15159289D01*
X12789606Y-15173574D01*
X12746749Y-15173574D01*
X13018178Y-15173574D02*
X12989606Y-15159289D01*
X12975321Y-15130717D01*
X12975321Y-14873574D01*
X13246749Y-15159289D02*
X13218178Y-15173574D01*
X13161035Y-15173574D01*
X13132463Y-15159289D01*
X13118178Y-15130717D01*
X13118178Y-15016431D01*
X13132463Y-14987860D01*
X13161035Y-14973574D01*
X13218178Y-14973574D01*
X13246749Y-14987860D01*
X13261035Y-15016431D01*
X13261035Y-15045003D01*
X13118178Y-15073574D01*
X13375321Y-15159289D02*
X13403892Y-15173574D01*
X13461035Y-15173574D01*
X13489606Y-15159289D01*
X13503892Y-15130717D01*
X13503892Y-15116431D01*
X13489606Y-15087860D01*
X13461035Y-15073574D01*
X13418178Y-15073574D01*
X13389606Y-15059289D01*
X13375321Y-15030717D01*
X13375321Y-15016431D01*
X13389606Y-14987860D01*
X13418178Y-14973574D01*
X13461035Y-14973574D01*
X13489606Y-14987860D01*
X13603892Y-15287860D02*
X13618178Y-15273574D01*
X13646749Y-15230717D01*
X13661035Y-15202146D01*
X13675321Y-15159289D01*
X13689606Y-15087860D01*
X13689606Y-15030717D01*
X13675321Y-14959289D01*
X13661035Y-14916431D01*
X13646749Y-14887860D01*
X13618178Y-14845003D01*
X13603892Y-14830717D01*
X14146749Y-15287860D02*
X14132463Y-15273574D01*
X14103892Y-15230717D01*
X14089606Y-15202146D01*
X14075321Y-15159289D01*
X14061035Y-15087860D01*
X14061035Y-15030717D01*
X14075321Y-14959289D01*
X14089606Y-14916431D01*
X14103892Y-14887860D01*
X14132463Y-14845003D01*
X14146749Y-14830717D01*
X14261035Y-14973574D02*
X14261035Y-15173574D01*
X14261035Y-15002146D02*
X14275321Y-14987860D01*
X14303892Y-14973574D01*
X14346749Y-14973574D01*
X14375321Y-14987860D01*
X14389606Y-15016431D01*
X14389606Y-15173574D01*
X14575321Y-15173574D02*
X14546749Y-15159289D01*
X14532463Y-15145003D01*
X14518178Y-15116431D01*
X14518178Y-15030717D01*
X14532463Y-15002146D01*
X14546749Y-14987860D01*
X14575321Y-14973574D01*
X14618178Y-14973574D01*
X14646749Y-14987860D01*
X14661035Y-15002146D01*
X14675321Y-15030717D01*
X14675321Y-15116431D01*
X14661035Y-15145003D01*
X14646749Y-15159289D01*
X14618178Y-15173574D01*
X14575321Y-15173574D01*
X14761035Y-14973574D02*
X14875321Y-14973574D01*
X14803892Y-14873574D02*
X14803892Y-15130717D01*
X14818178Y-15159289D01*
X14846749Y-15173574D01*
X14875321Y-15173574D01*
X15203892Y-14973574D02*
X15203892Y-15273574D01*
X15203892Y-14987860D02*
X15232463Y-14973574D01*
X15289606Y-14973574D01*
X15318178Y-14987860D01*
X15332463Y-15002146D01*
X15346749Y-15030717D01*
X15346749Y-15116431D01*
X15332463Y-15145003D01*
X15318178Y-15159289D01*
X15289606Y-15173574D01*
X15232463Y-15173574D01*
X15203892Y-15159289D01*
X15518178Y-15173574D02*
X15489606Y-15159289D01*
X15475321Y-15130717D01*
X15475321Y-14873574D01*
X15761035Y-15173574D02*
X15761035Y-15016431D01*
X15746749Y-14987860D01*
X15718178Y-14973574D01*
X15661035Y-14973574D01*
X15632463Y-14987860D01*
X15761035Y-15159289D02*
X15732463Y-15173574D01*
X15661035Y-15173574D01*
X15632463Y-15159289D01*
X15618178Y-15130717D01*
X15618178Y-15102146D01*
X15632463Y-15073574D01*
X15661035Y-15059289D01*
X15732463Y-15059289D01*
X15761035Y-15045003D01*
X15861035Y-14973574D02*
X15975321Y-14973574D01*
X15903892Y-14873574D02*
X15903892Y-15130717D01*
X15918178Y-15159289D01*
X15946749Y-15173574D01*
X15975321Y-15173574D01*
X16189606Y-15159289D02*
X16161035Y-15173574D01*
X16103892Y-15173574D01*
X16075321Y-15159289D01*
X16061035Y-15130717D01*
X16061035Y-15016431D01*
X16075321Y-14987860D01*
X16103892Y-14973574D01*
X16161035Y-14973574D01*
X16189606Y-14987860D01*
X16203892Y-15016431D01*
X16203892Y-15045003D01*
X16061035Y-15073574D01*
X16461035Y-15173574D02*
X16461035Y-14873574D01*
X16461035Y-15159289D02*
X16432463Y-15173574D01*
X16375321Y-15173574D01*
X16346749Y-15159289D01*
X16332463Y-15145003D01*
X16318178Y-15116431D01*
X16318178Y-15030717D01*
X16332463Y-15002146D01*
X16346749Y-14987860D01*
X16375321Y-14973574D01*
X16432463Y-14973574D01*
X16461035Y-14987860D01*
X16575321Y-15287860D02*
X16589606Y-15273574D01*
X16618178Y-15230717D01*
X16632463Y-15202146D01*
X16646749Y-15159289D01*
X16661035Y-15087860D01*
X16661035Y-15030717D01*
X16646749Y-14959289D01*
X16632463Y-14916431D01*
X16618178Y-14887860D01*
X16589606Y-14845003D01*
X16575321Y-14830717D01*
M02*
