M48
; DRILL file {KiCad (5.1.10)-1} date 08/17/21 11:35:50
; FORMAT={-:-/ absolute / metric / decimal}
; #@! TF.CreationDate,2021-08-17T11:35:50-05:00
; #@! TF.GenerationSoftware,Kicad,Pcbnew,(5.1.10)-1
; #@! TF.FileFunction,Plated,1,4,PTH
FMAT,2
METRIC
T1C0.300
T2C0.350
T3C0.400
T4C0.440
T5C0.450
T6C0.600
T7C0.650
T8C0.800
T9C0.813
T10C1.000
T11C1.016
T12C1.100
T13C1.200
%
G90
G05
T1
X66.057Y-71.031
X66.057Y-72.047
X66.057Y-73.063
X66.057Y-74.079
X66.057Y-75.095
X66.057Y-76.111
X66.057Y-77.127
X66.057Y-78.143
X66.057Y-79.159
X66.057Y-80.175
X66.057Y-81.191
X66.057Y-82.207
X66.057Y-83.223
X66.057Y-84.239
X66.057Y-85.255
X66.057Y-86.271
X66.057Y-87.287
X66.057Y-88.303
X66.057Y-89.319
X66.057Y-90.335
X66.057Y-91.351
X66.057Y-92.367
X66.057Y-93.383
X66.057Y-94.399
X66.057Y-95.415
X66.057Y-96.431
X66.057Y-97.447
X66.057Y-98.463
X66.057Y-99.479
X66.057Y-100.495
X66.057Y-101.511
X66.057Y-102.527
X66.057Y-103.543
X66.057Y-104.559
X66.057Y-105.575
X66.057Y-106.591
X66.057Y-107.607
X66.057Y-108.623
X66.057Y-109.639
X66.057Y-110.655
X66.057Y-111.671
X66.057Y-112.687
X66.057Y-113.703
X66.057Y-114.719
X66.057Y-115.735
X66.057Y-116.751
X66.057Y-117.767
X66.057Y-118.783
X66.057Y-119.799
X66.057Y-120.815
X66.057Y-121.831
X66.057Y-122.847
X66.057Y-123.863
X66.057Y-124.879
X66.057Y-125.895
X66.057Y-126.911
X66.057Y-127.927
X66.057Y-128.943
X66.057Y-129.959
X66.057Y-130.975
X66.057Y-131.991
X66.057Y-133.007
X66.057Y-134.023
X66.057Y-135.039
X66.057Y-136.055
X66.057Y-137.071
X66.057Y-138.087
X66.057Y-139.039
X66.247Y-70.015
X66.247Y-139.992
X67.2Y-140.182
X67.263Y-69.824
X67.716Y-109.842
X67.716Y-111.608
X67.716Y-118.986
X67.716Y-120.752
X67.716Y-128.13
X67.716Y-129.896
X67.716Y-137.274
X67.716Y-139.04
X68.216Y-140.182
X68.279Y-69.824
X68.428Y-109.842
X68.428Y-111.608
X68.428Y-118.986
X68.428Y-120.752
X68.428Y-128.13
X68.428Y-129.896
X68.428Y-137.274
X68.428Y-139.04
X69.139Y-109.842
X69.139Y-111.608
X69.139Y-118.986
X69.139Y-120.752
X69.139Y-128.13
X69.139Y-129.896
X69.139Y-137.274
X69.139Y-139.04
X69.232Y-140.182
X69.295Y-69.824
X69.85Y-109.842
X69.85Y-111.608
X69.85Y-118.986
X69.85Y-120.752
X69.85Y-128.13
X69.85Y-129.896
X69.85Y-137.274
X69.85Y-139.04
X70.121Y-85.445
X70.248Y-140.182
X70.311Y-69.824
X70.561Y-109.842
X70.561Y-111.608
X70.561Y-118.986
X70.561Y-120.752
X70.561Y-128.13
X70.561Y-129.896
X70.561Y-137.274
X70.561Y-139.04
X70.819Y-103.86
X70.819Y-113.004
X70.819Y-122.148
X70.819Y-131.292
X71.264Y-140.182
X71.272Y-109.842
X71.272Y-110.693
X71.272Y-111.608
X71.272Y-118.986
X71.272Y-119.837
X71.272Y-120.752
X71.272Y-128.13
X71.272Y-128.981
X71.272Y-129.896
X71.272Y-137.274
X71.272Y-138.125
X71.272Y-139.04
X71.327Y-69.824
X72.28Y-140.182
X72.343Y-69.824
X72.915Y-71.793
X73.296Y-140.182
X73.359Y-69.824
X74.312Y-140.182
X74.375Y-69.824
X75.328Y-140.182
X75.391Y-69.824
X76.344Y-140.182
X76.407Y-69.824
X76.725Y-131.292
X76.788Y-113.004
X76.852Y-122.148
X76.915Y-103.479
X77.36Y-140.182
X77.423Y-69.824
X78.312Y-85.445
X78.376Y-140.182
X78.439Y-69.824
X79.201Y-99.098
X79.392Y-140.182
X79.455Y-69.824
X80.408Y-140.182
X80.471Y-69.824
X80.789Y-101.13
X80.789Y-101.765
X80.789Y-102.336
X80.83Y-104.875
X81.17Y-71.793
X81.424Y-140.182
X81.487Y-69.824
X81.487Y-101.13
X81.487Y-101.765
X81.487Y-102.4
X81.868Y-98.272
X82.13Y-105.193
X82.186Y-101.13
X82.186Y-101.765
X82.186Y-102.336
X82.44Y-140.182
X82.503Y-69.824
X82.694Y-119.037
X82.694Y-119.672
X82.694Y-120.307
X82.694Y-120.942
X82.884Y-101.13
X82.884Y-101.765
X82.884Y-102.336
X82.884Y-102.971
X83.373Y-98.872
X83.392Y-119.037
X83.392Y-119.672
X83.392Y-120.307
X83.392Y-120.942
X83.456Y-140.182
X83.519Y-69.824
X84.091Y-119.037
X84.091Y-119.672
X84.091Y-120.307
X84.091Y-120.942
X84.154Y-98.971
X84.472Y-140.182
X84.535Y-69.824
X84.726Y-101.13
X84.726Y-101.765
X84.726Y-102.4
X84.767Y-105.14
X84.789Y-119.037
X84.789Y-119.672
X84.789Y-120.307
X84.789Y-120.942
X85.043Y-125.831
X85.424Y-101.13
X85.424Y-101.765
X85.424Y-102.4
X85.488Y-119.037
X85.488Y-119.672
X85.488Y-120.307
X85.488Y-120.942
X85.488Y-140.182
X85.551Y-69.824
X86.067Y-98.661
X86.067Y-105.14
X86.123Y-101.13
X86.123Y-101.765
X86.123Y-102.336
X86.186Y-119.037
X86.186Y-119.672
X86.186Y-120.307
X86.186Y-120.942
X86.256Y-113.639
X86.504Y-140.182
X86.567Y-69.824
X86.821Y-101.13
X86.821Y-101.765
X86.821Y-102.336
X87.056Y-113.639
X87.52Y-140.182
X87.583Y-69.824
X87.683Y-70.612
X87.856Y-113.639
X88.536Y-140.182
X88.599Y-69.824
X88.656Y-113.639
X88.853Y-119.037
X88.853Y-119.672
X88.853Y-120.307
X88.853Y-120.942
X89.552Y-119.037
X89.552Y-119.672
X89.552Y-120.307
X89.552Y-120.942
X89.552Y-140.182
X89.56Y-71.247
X89.615Y-69.824
X89.869Y-113.766
X90.25Y-119.037
X90.25Y-119.672
X90.25Y-120.307
X90.25Y-120.942
X90.568Y-140.182
X90.589Y-74.701
X90.631Y-69.824
X90.949Y-96.367
X90.949Y-119.037
X90.949Y-119.672
X90.949Y-120.307
X90.949Y-120.942
X91.266Y-87.223
X91.52Y-101.13
X91.52Y-101.765
X91.52Y-102.336
X91.584Y-140.182
X91.647Y-69.824
X91.647Y-119.037
X91.647Y-119.672
X91.647Y-120.307
X91.647Y-120.942
X91.657Y-98.707
X92.219Y-101.13
X92.219Y-101.765
X92.219Y-102.336
X92.346Y-119.037
X92.346Y-119.672
X92.346Y-120.307
X92.346Y-120.942
X92.6Y-140.182
X92.663Y-69.824
X92.917Y-101.13
X92.917Y-101.765
X92.917Y-102.336
X93.616Y-101.13
X93.616Y-101.765
X93.616Y-102.336
X93.616Y-140.182
X93.679Y-69.824
X94.124Y-112.877
X94.178Y-98.847
X94.424Y-74.676
X94.632Y-140.182
X94.695Y-69.824
X94.945Y-78.486
X94.949Y-98.971
X95.013Y-119.037
X95.013Y-119.672
X95.013Y-120.307
X95.013Y-120.942
X95.521Y-101.13
X95.521Y-101.765
X95.521Y-102.4
X95.648Y-140.182
X95.654Y-112.814
X95.711Y-69.824
X95.711Y-119.037
X95.711Y-119.672
X95.711Y-120.307
X95.711Y-120.942
X96.219Y-101.13
X96.219Y-101.765
X96.219Y-102.4
X96.41Y-119.037
X96.41Y-119.672
X96.41Y-120.307
X96.41Y-120.942
X96.454Y-112.814
X96.664Y-140.182
X96.727Y-69.824
X96.862Y-98.661
X96.918Y-101.13
X96.918Y-101.765
X96.918Y-102.336
X97.108Y-119.037
X97.108Y-119.672
X97.108Y-120.307
X97.108Y-120.942
X97.254Y-112.814
X97.257Y-87.325
X97.616Y-101.13
X97.616Y-101.765
X97.616Y-102.336
X97.68Y-140.182
X97.743Y-69.824
X97.807Y-119.037
X97.807Y-119.672
X97.807Y-120.307
X97.807Y-120.942
X97.87Y-91.986
X98.054Y-112.814
X98.505Y-119.037
X98.505Y-119.672
X98.505Y-120.307
X98.505Y-120.942
X98.696Y-91.986
X98.696Y-140.182
X98.759Y-69.824
X99.712Y-114.02
X99.712Y-140.182
X99.775Y-69.824
X100.347Y-114.02
X100.454Y-101.163
X100.728Y-140.182
X100.791Y-69.824
X101.045Y-119.037
X101.045Y-119.672
X101.045Y-120.307
X101.045Y-120.942
X101.617Y-114.02
X101.744Y-91.859
X101.744Y-119.037
X101.744Y-119.672
X101.744Y-120.307
X101.744Y-120.942
X101.744Y-140.182
X101.807Y-69.824
X101.871Y-101.13
X102.442Y-106.464
X102.442Y-119.037
X102.442Y-119.672
X102.442Y-120.307
X102.442Y-120.942
X102.76Y-140.182
X102.823Y-69.824
X102.823Y-114.02
X103.077Y-101.13
X103.141Y-119.037
X103.141Y-119.672
X103.141Y-120.307
X103.141Y-120.942
X103.395Y-108.559
X103.649Y-106.464
X103.776Y-140.182
X103.839Y-69.824
X103.839Y-119.037
X103.839Y-119.672
X103.839Y-120.307
X103.839Y-120.942
X103.924Y-81.61
X104.03Y-114.02
X104.284Y-101.13
X104.538Y-119.037
X104.538Y-119.672
X104.538Y-120.307
X104.538Y-120.942
X104.792Y-140.182
X104.855Y-69.824
X104.855Y-106.464
X105.236Y-114.02
X105.486Y-76.698
X105.49Y-101.13
X105.617Y-97.891
X105.808Y-140.182
X105.871Y-69.824
X106.062Y-106.464
X106.443Y-114.02
X106.697Y-101.13
X106.824Y-140.182
X106.887Y-69.824
X107.141Y-119.037
X107.141Y-119.672
X107.141Y-120.307
X107.141Y-120.942
X107.268Y-106.464
X107.649Y-114.02
X107.81Y-78.702
X107.84Y-119.037
X107.84Y-119.672
X107.84Y-120.307
X107.84Y-120.942
X107.84Y-140.182
X107.903Y-69.824
X107.903Y-101.13
X108.25Y-98.049
X108.356Y-97.053
X108.475Y-106.464
X108.538Y-119.037
X108.538Y-119.672
X108.538Y-120.307
X108.538Y-120.942
X108.735Y-113.081
X108.792Y-91.859
X108.856Y-140.182
X108.919Y-69.824
X108.919Y-92.811
X108.919Y-93.764
X109.11Y-101.13
X109.237Y-119.037
X109.237Y-119.672
X109.237Y-120.307
X109.237Y-120.942
X109.535Y-113.068
X109.611Y-108.778
X109.681Y-106.464
X109.872Y-140.182
X109.935Y-69.824
X109.935Y-119.037
X109.935Y-119.672
X109.935Y-120.307
X109.935Y-120.942
X110.316Y-101.13
X110.335Y-113.068
X110.634Y-119.037
X110.634Y-119.672
X110.634Y-120.307
X110.634Y-120.942
X110.888Y-140.182
X110.951Y-69.824
X111.135Y-113.068
X111.269Y-87.414
X111.521Y-75.283
X111.904Y-140.182
X111.967Y-69.824
X112.065Y-86.449
X112.258Y-114.239
X112.412Y-85.318
X112.666Y-107.162
X112.916Y-89.624
X112.92Y-140.182
X112.983Y-69.824
X113.237Y-119.037
X113.237Y-119.672
X113.237Y-120.307
X113.237Y-120.942
X113.259Y-84.519
X113.462Y-114.254
X113.936Y-119.037
X113.936Y-119.672
X113.936Y-120.307
X113.936Y-120.942
X113.936Y-140.182
X113.999Y-69.824
X114.16Y-88.722
X114.444Y-105.003
X114.634Y-119.037
X114.634Y-119.672
X114.634Y-120.307
X114.634Y-120.942
X114.686Y-114.254
X114.952Y-140.182
X115.015Y-69.824
X115.206Y-80.238
X115.275Y-72.38
X115.321Y-71.13
X115.333Y-119.037
X115.333Y-119.672
X115.333Y-120.307
X115.333Y-120.942
X115.9Y-114.244
X115.968Y-140.182
X116.031Y-69.824
X116.031Y-119.037
X116.031Y-119.672
X116.031Y-120.307
X116.031Y-120.942
X116.095Y-80.238
X116.539Y-95.923
X116.73Y-119.037
X116.73Y-119.672
X116.73Y-120.307
X116.73Y-120.942
X116.984Y-140.182
X117.047Y-69.824
X117.365Y-79.029
X117.428Y-78.016
X117.699Y-108.763
X118.0Y-140.182
X118.063Y-69.824
X118.483Y-107.963
X119.016Y-140.182
X119.079Y-69.824
X119.228Y-113.924
X119.299Y-108.283
X119.99Y-108.869
X120.032Y-81.381
X120.032Y-140.182
X120.095Y-69.824
X120.603Y-98.844
X121.048Y-140.182
X121.111Y-69.824
X121.175Y-98.463
X121.175Y-99.161
X121.412Y-109.563
X121.453Y-73.746
X121.746Y-86.207
X121.81Y-90.589
X121.933Y-98.577
X122.064Y-140.182
X122.098Y-75.819
X122.127Y-69.824
X122.254Y-88.303
X122.381Y-91.097
X122.415Y-109.601
X122.508Y-92.303
X123.08Y-140.182
X123.143Y-69.824
X123.175Y-80.965
X123.279Y-109.499
X123.358Y-75.839
X123.515Y-96.799
X124.096Y-140.182
X124.159Y-69.824
X124.223Y-93.002
X124.54Y-88.366
X124.921Y-96.494
X124.985Y-88.94
X125.112Y-86.207
X125.112Y-140.182
X125.174Y-104.501
X125.175Y-69.824
X125.184Y-110.325
X125.24Y-102.659
X125.324Y-108.61
X125.344Y-106.837
X125.429Y-78.333
X125.747Y-95.224
X125.937Y-98.526
X126.001Y-88.811
X126.064Y-86.207
X126.128Y-140.182
X126.191Y-69.824
X126.191Y-96.555
X126.699Y-97.066
X127.038Y-108.61
X127.144Y-140.182
X127.207Y-69.824
X127.525Y-84.62
X127.635Y-76.698
X127.652Y-91.287
X127.652Y-96.367
X127.757Y-74.158
X127.969Y-89.509
X128.16Y-140.182
X128.223Y-69.824
X128.46Y-86.665
X128.541Y-92.494
X128.549Y-108.742
X128.562Y-82.969
X128.604Y-83.921
X128.858Y-84.62
X129.112Y-90.589
X129.176Y-82.08
X129.176Y-140.182
X129.239Y-69.824
X129.239Y-91.668
X129.451Y-109.512
X129.684Y-81.572
X129.747Y-98.717
X129.938Y-74.65
X130.192Y-81.064
X130.192Y-140.182
X130.255Y-69.824
X130.382Y-93.51
X130.7Y-94.462
X131.059Y-71.029
X131.208Y-140.182
X131.271Y-69.824
X131.525Y-94.589
X131.589Y-99.796
X131.652Y-80.238
X132.224Y-140.182
X132.287Y-69.824
X132.334Y-86.081
X132.414Y-100.939
X132.541Y-102.463
X132.859Y-78.841
X132.859Y-96.621
X133.24Y-140.182
X133.261Y-85.293
X133.303Y-69.824
X133.621Y-94.081
X134.064Y-105.537
X134.192Y-78.587
X134.256Y-140.182
X134.315Y-79.87
X134.319Y-69.824
X134.709Y-70.752
X134.954Y-78.079
X135.018Y-77.254
X135.208Y-96.177
X135.272Y-140.182
X135.335Y-69.824
X135.399Y-98.531
X136.161Y-102.971
X136.288Y-140.182
X136.309Y-97.574
X136.351Y-69.824
X136.542Y-99.479
X136.923Y-76.238
X137.071Y-87.846
X137.24Y-123.609
X137.304Y-140.182
X137.367Y-69.824
X137.554Y-110.909
X137.812Y-76.238
X138.138Y-115.811
X138.138Y-116.51
X138.138Y-117.272
X138.138Y-117.958
X138.138Y-118.669
X138.138Y-119.431
X138.193Y-71.285
X138.32Y-140.182
X138.383Y-69.824
X138.383Y-76.936
X138.383Y-103.606
X138.841Y-115.811
X138.841Y-116.509
X138.841Y-117.271
X138.841Y-117.97
X138.841Y-118.668
X138.841Y-119.43
X139.018Y-77.762
X139.082Y-106.908
X139.336Y-140.182
X139.399Y-69.824
X139.539Y-115.811
X139.539Y-116.509
X139.539Y-117.271
X139.539Y-117.97
X139.539Y-118.668
X139.539Y-119.43
X139.59Y-77.381
X139.78Y-106.337
X140.161Y-78.397
X140.238Y-115.811
X140.238Y-116.509
X140.238Y-117.271
X140.238Y-117.97
X140.238Y-118.668
X140.238Y-119.43
X140.352Y-111.226
X140.352Y-140.182
X140.415Y-69.824
X140.415Y-95.542
X141.05Y-91.16
X141.114Y-102.209
X141.368Y-140.182
X141.431Y-69.824
X142.384Y-140.182
X142.43Y-108.814
X142.447Y-69.824
X142.532Y-107.01
X142.939Y-108.217
X143.146Y-72.936
X143.173Y-106.775
X143.358Y-70.688
X143.4Y-140.182
X143.463Y-69.824
X143.781Y-76.492
X144.162Y-90.525
X144.416Y-91.541
X144.416Y-140.182
X144.479Y-69.824
X144.479Y-115.036
X144.488Y-103.581
X144.67Y-73.634
X144.924Y-107.461
X145.178Y-106.4
X145.432Y-140.182
X145.495Y-69.824
X145.94Y-104.114
X146.003Y-78.651
X146.003Y-95.732
X146.003Y-97.023
X146.041Y-96.392
X146.067Y-95.097
X146.448Y-140.182
X146.511Y-69.824
X146.575Y-84.556
X146.702Y-107.416
X146.892Y-101.892
X146.956Y-85.763
X147.146Y-89.7
X147.464Y-140.182
X147.527Y-69.824
X147.625Y-72.187
X147.777Y-89.383
X148.387Y-86.309
X148.48Y-140.182
X148.543Y-69.824
X149.301Y-72.149
X149.496Y-140.182
X149.559Y-69.824
X150.421Y-82.69
X150.512Y-140.182
X150.575Y-69.824
X150.956Y-103.797
X151.293Y-82.672
X151.308Y-88.468
X151.337Y-98.272
X151.528Y-140.182
X151.591Y-69.824
X151.854Y-83.144
X152.48Y-94.208
X152.544Y-140.182
X152.607Y-69.824
X152.671Y-81.318
X152.671Y-82.016
X152.671Y-82.715
X152.861Y-95.097
X153.242Y-86.08
X153.242Y-86.779
X153.369Y-81.318
X153.369Y-82.016
X153.369Y-82.715
X153.56Y-140.182
X153.623Y-69.824
X154.576Y-140.182
X154.639Y-69.824
X155.465Y-95.859
X155.592Y-140.182
X155.655Y-69.824
X156.608Y-140.182
X156.671Y-69.824
X156.671Y-94.145
X156.735Y-92.875
X156.862Y-118.719
X156.925Y-88.62
X157.624Y-140.182
X157.687Y-69.824
X158.195Y-89.827
X158.64Y-140.182
X158.703Y-69.824
X158.767Y-86.906
X159.465Y-86.207
X159.465Y-86.906
X159.656Y-140.182
X159.719Y-69.824
X160.164Y-85.509
X160.164Y-86.207
X160.164Y-86.906
X160.672Y-140.182
X160.735Y-69.824
X160.862Y-85.509
X160.862Y-86.207
X160.862Y-86.906
X161.506Y-124.181
X161.688Y-140.182
X161.751Y-69.824
X161.942Y-75.73
X162.704Y-140.182
X162.767Y-69.824
X162.997Y-131.196
X163.025Y-86.723
X163.212Y-111.163
X163.275Y-113.703
X163.339Y-101.13
X163.339Y-103.67
X163.72Y-140.182
X163.783Y-69.824
X164.736Y-140.182
X164.799Y-69.824
X165.224Y-90.427
X165.625Y-76.682
X165.752Y-140.182
X165.815Y-69.824
X166.768Y-140.182
X166.831Y-69.824
X167.053Y-91.867
X167.149Y-76.428
X167.526Y-123.469
X167.784Y-140.182
X167.847Y-69.824
X168.118Y-91.869
X168.491Y-122.695
X168.8Y-140.182
X168.863Y-69.824
X168.863Y-99.415
X169.793Y-71.833
X169.816Y-140.182
X169.879Y-69.824
X169.906Y-91.496
X169.943Y-113.131
X170.124Y-90.434
X170.339Y-73.573
X170.491Y-71.833
X170.832Y-140.182
X170.895Y-69.824
X170.927Y-100.437
X170.962Y-96.134
X171.038Y-73.573
X171.19Y-71.833
X171.34Y-103.416
X171.34Y-104.114
X171.34Y-104.813
X171.34Y-105.511
X171.34Y-106.21
X171.736Y-73.573
X171.848Y-140.182
X171.911Y-69.824
X171.983Y-121.958
X172.038Y-103.416
X172.038Y-104.114
X172.038Y-104.813
X172.038Y-105.511
X172.038Y-106.21
X172.673Y-113.957
X172.737Y-103.416
X172.737Y-104.114
X172.737Y-104.813
X172.737Y-105.511
X172.737Y-106.21
X172.864Y-140.182
X172.927Y-69.824
X173.435Y-103.416
X173.435Y-104.114
X173.435Y-104.813
X173.641Y-73.446
X173.753Y-105.765
X173.816Y-113.957
X173.88Y-140.182
X173.943Y-69.824
X174.134Y-103.416
X174.134Y-104.114
X174.134Y-104.813
X174.213Y-76.304
X174.467Y-71.859
X174.832Y-103.416
X174.832Y-104.114
X174.832Y-104.813
X174.896Y-140.182
X174.911Y-76.304
X174.959Y-69.824
X175.531Y-103.416
X175.531Y-104.114
X175.531Y-104.813
X175.61Y-76.304
X175.864Y-94.338
X175.864Y-95.1
X175.864Y-95.862
X175.864Y-96.624
X175.864Y-97.386
X175.864Y-98.148
X175.864Y-98.91
X175.864Y-99.672
X175.912Y-119.862
X175.912Y-120.565
X175.912Y-121.196
X175.912Y-140.182
X175.975Y-69.824
X176.102Y-114.338
X176.102Y-116.941
X176.166Y-115.735
X176.293Y-119.164
X176.483Y-121.958
X176.562Y-94.338
X176.562Y-95.1
X176.562Y-95.862
X176.562Y-96.624
X176.562Y-97.386
X176.562Y-98.148
X176.562Y-98.91
X176.562Y-99.672
X176.61Y-116.37
X176.928Y-140.182
X176.991Y-69.824
X177.261Y-94.338
X177.261Y-95.1
X177.261Y-95.862
X177.261Y-96.624
X177.261Y-97.386
X177.261Y-98.148
X177.261Y-98.91
X177.261Y-99.672
X177.642Y-84.813
X177.69Y-117.767
X177.944Y-140.182
X177.959Y-94.338
X177.959Y-95.1
X177.959Y-95.862
X177.959Y-96.624
X177.959Y-97.386
X177.959Y-98.148
X177.959Y-98.91
X177.959Y-99.672
X178.007Y-69.824
X178.34Y-84.813
X178.658Y-94.338
X178.658Y-95.1
X178.658Y-95.862
X178.658Y-96.624
X178.658Y-97.386
X178.658Y-98.148
X178.658Y-98.91
X178.658Y-99.672
X178.706Y-116.37
X178.706Y-119.164
X178.896Y-113.385
X178.96Y-140.182
X179.023Y-69.824
X179.039Y-84.813
X179.356Y-94.338
X179.356Y-95.1
X179.356Y-95.862
X179.356Y-96.624
X179.356Y-97.386
X179.356Y-98.148
X179.356Y-98.91
X179.356Y-99.672
X179.976Y-140.182
X180.039Y-69.824
X180.055Y-94.338
X180.055Y-95.1
X180.055Y-95.862
X180.055Y-96.624
X180.055Y-97.386
X180.055Y-98.148
X180.055Y-98.91
X180.055Y-99.672
X180.309Y-74.78
X180.309Y-75.478
X180.309Y-76.177
X180.309Y-76.812
X180.309Y-77.51
X180.626Y-82.867
X180.626Y-83.566
X180.626Y-84.264
X180.753Y-94.338
X180.753Y-95.1
X180.753Y-95.862
X180.753Y-96.624
X180.753Y-97.386
X180.753Y-98.148
X180.753Y-98.91
X180.753Y-99.672
X180.992Y-140.182
X181.007Y-74.78
X181.007Y-75.478
X181.007Y-76.177
X181.007Y-76.812
X181.007Y-77.51
X181.055Y-69.824
X181.325Y-82.867
X181.325Y-83.566
X181.325Y-84.264
X181.5Y-121.704
X181.706Y-74.78
X181.706Y-75.478
X181.706Y-76.177
X181.706Y-76.812
X181.706Y-77.51
X182.008Y-140.182
X182.023Y-82.867
X182.023Y-83.566
X182.023Y-84.264
X182.071Y-69.824
X183.024Y-140.182
X183.087Y-69.824
X183.166Y-71.668
X183.166Y-72.367
X183.166Y-73.065
X183.293Y-94.782
X183.293Y-95.481
X183.293Y-96.179
X183.293Y-96.878
X183.293Y-97.576
X183.611Y-84.178
X183.722Y-104.686
X183.786Y-112.306
X183.865Y-71.668
X183.865Y-72.367
X183.865Y-73.065
X183.992Y-94.782
X183.992Y-95.481
X183.992Y-96.179
X183.992Y-96.878
X183.992Y-97.576
X184.04Y-140.182
X184.103Y-69.824
X184.167Y-119.799
X184.309Y-84.178
X184.563Y-71.668
X184.563Y-72.367
X184.563Y-73.065
X184.69Y-94.782
X184.69Y-95.481
X184.69Y-96.179
X184.69Y-96.878
X184.69Y-97.576
X185.008Y-84.178
X185.056Y-140.182
X185.119Y-69.824
X185.119Y-123.736
X185.389Y-94.782
X185.389Y-95.481
X185.389Y-96.179
X185.389Y-96.878
X185.389Y-97.576
X185.437Y-102.019
X185.5Y-105.829
X185.5Y-108.496
X185.881Y-116.052
X186.072Y-140.182
X186.087Y-94.782
X186.087Y-95.481
X186.087Y-96.179
X186.087Y-96.878
X186.087Y-97.576
X186.135Y-69.824
X186.786Y-94.782
X186.786Y-95.481
X186.786Y-96.179
X186.786Y-96.878
X186.786Y-97.576
X187.088Y-140.182
X187.151Y-69.824
X187.278Y-118.021
X187.278Y-121.831
X187.484Y-94.782
X187.484Y-95.481
X187.484Y-96.179
X187.484Y-96.878
X187.484Y-97.576
X188.104Y-140.182
X188.167Y-69.824
X188.5Y-72.082
X188.5Y-72.781
X188.5Y-73.479
X189.12Y-140.182
X189.183Y-69.824
X189.199Y-72.082
X189.199Y-72.781
X189.199Y-73.479
X189.897Y-72.082
X189.897Y-72.781
X189.897Y-73.479
X189.918Y-114.16
X190.136Y-140.182
X190.199Y-69.824
X190.644Y-102.209
X190.644Y-103.225
X190.644Y-104.305
X190.644Y-105.321
X190.644Y-106.337
X190.644Y-107.607
X190.644Y-108.623
X190.644Y-109.702
X190.644Y-110.718
X190.644Y-111.734
X191.152Y-140.182
X191.215Y-69.824
X192.168Y-140.182
X192.231Y-69.824
X193.184Y-140.182
X193.247Y-69.824
X194.2Y-140.182
X194.263Y-69.824
X195.216Y-140.182
X195.279Y-69.824
X195.331Y-119.421
X196.118Y-117.231
X196.232Y-140.182
X196.295Y-69.824
X197.066Y-124.468
X197.248Y-140.182
X197.311Y-69.824
X197.546Y-110.774
X197.863Y-124.475
X198.264Y-140.182
X198.327Y-69.824
X198.666Y-124.47
X199.28Y-140.182
X199.343Y-69.824
X199.586Y-119.479
X200.195Y-121.486
X200.296Y-140.182
X200.359Y-69.824
X200.894Y-103.03
X201.312Y-140.182
X201.375Y-69.824
X201.625Y-119.136
X202.328Y-140.182
X202.391Y-69.824
X203.344Y-140.182
X203.407Y-69.824
X204.296Y-74.396
X204.36Y-123.418
X204.36Y-140.182
X204.423Y-69.824
X204.614Y-121.386
X204.931Y-117.259
X205.376Y-140.182
X205.439Y-69.824
X206.138Y-110.782
X206.392Y-140.182
X206.455Y-69.824
X207.408Y-140.182
X207.471Y-69.824
X208.297Y-123.418
X208.424Y-110.782
X208.424Y-140.182
X208.487Y-69.824
X208.932Y-121.513
X209.44Y-140.182
X209.503Y-69.824
X209.757Y-116.37
X210.456Y-140.182
X210.519Y-69.824
X210.519Y-119.1
X211.472Y-140.182
X211.535Y-69.824
X212.488Y-140.182
X212.551Y-69.824
X212.869Y-123.418
X212.996Y-121.45
X213.44Y-117.259
X213.504Y-140.182
X213.567Y-69.824
X214.52Y-110.782
X214.52Y-140.182
X214.583Y-69.824
X215.536Y-140.182
X215.599Y-69.824
X216.552Y-140.182
X216.615Y-69.824
X216.933Y-110.782
X217.187Y-123.418
X217.377Y-121.45
X217.568Y-140.182
X217.631Y-69.824
X218.266Y-116.37
X218.584Y-140.182
X218.647Y-69.824
X219.092Y-119.1
X219.26Y-75.082
X219.6Y-140.182
X219.663Y-69.824
X220.616Y-140.182
X220.679Y-69.824
X220.76Y-77.636
X221.441Y-123.355
X221.632Y-140.182
X221.695Y-69.824
X221.759Y-121.45
X221.949Y-117.259
X222.648Y-140.182
X222.711Y-69.824
X223.029Y-110.782
X223.664Y-140.182
X223.727Y-69.824
X224.68Y-140.182
X224.743Y-69.824
X225.442Y-110.782
X225.501Y-125.405
X225.696Y-140.182
X225.759Y-69.824
X225.759Y-121.45
X226.077Y-123.418
X226.712Y-140.182
X226.775Y-69.824
X226.775Y-116.37
X227.537Y-119.164
X227.728Y-140.182
X227.791Y-69.824
X228.744Y-140.182
X228.807Y-69.824
X229.76Y-140.182
X229.823Y-69.824
X230.776Y-70.015
X230.776Y-139.992
X230.966Y-71.031
X230.966Y-72.047
X230.966Y-73.063
X230.966Y-74.079
X230.966Y-75.095
X230.966Y-76.111
X230.966Y-77.127
X230.966Y-78.143
X230.966Y-79.159
X230.966Y-80.175
X230.966Y-81.191
X230.966Y-82.207
X230.966Y-83.223
X230.966Y-84.239
X230.966Y-85.255
X230.966Y-86.271
X230.966Y-87.287
X230.966Y-88.303
X230.966Y-89.319
X230.966Y-90.335
X230.966Y-91.351
X230.966Y-92.367
X230.966Y-93.383
X230.966Y-94.399
X230.966Y-95.415
X230.966Y-96.431
X230.966Y-97.447
X230.966Y-98.463
X230.966Y-99.479
X230.966Y-100.495
X230.966Y-101.511
X230.966Y-102.527
X230.966Y-103.543
X230.966Y-104.559
X230.966Y-105.575
X230.966Y-106.591
X230.966Y-107.607
X230.966Y-108.623
X230.966Y-109.639
X230.966Y-110.655
X230.966Y-111.671
X230.966Y-112.687
X230.966Y-113.703
X230.966Y-114.719
X230.966Y-115.735
X230.966Y-116.751
X230.966Y-117.767
X230.966Y-118.783
X230.966Y-119.799
X230.966Y-120.815
X230.966Y-121.831
X230.966Y-122.847
X230.966Y-123.863
X230.966Y-124.879
X230.966Y-125.895
X230.966Y-126.911
X230.966Y-127.927
X230.966Y-128.943
X230.966Y-129.959
X230.966Y-130.975
X230.966Y-131.991
X230.966Y-133.007
X230.966Y-134.023
X230.966Y-135.039
X230.966Y-136.055
X230.966Y-137.071
X230.966Y-138.087
X230.966Y-139.039
T2
X95.14Y-92.811
X95.965Y-95.796
X117.111Y-86.715
X119.714Y-77.508
X122.194Y-105.128
X135.97Y-124.307
X136.542Y-103.479
X144.035Y-89.446
X144.797Y-89.382
X145.368Y-83.35
X145.559Y-89.319
X145.876Y-83.921
X146.384Y-89.255
X148.226Y-88.747
X148.48Y-81.572
X148.607Y-88.049
X149.051Y-82.334
X149.369Y-87.477
X151.718Y-85.128
X188.04Y-123.609
X188.993Y-103.67
X188.993Y-107.48
X188.993Y-111.226
X188.993Y-115.163
X188.993Y-118.783
X196.423Y-103.012
X197.919Y-103.02
X199.41Y-103.02
X199.804Y-110.774
X200.904Y-116.357
X204.995Y-103.035
X206.519Y-103.035
X208.043Y-103.035
X209.567Y-103.035
X213.504Y-103.035
X215.028Y-103.035
X216.552Y-103.035
X218.076Y-103.035
X222.013Y-103.035
X223.537Y-103.035
X225.061Y-103.035
X226.585Y-103.035
T3
X79.138Y-103.543
X88.472Y-103.479
X89.869Y-103.479
X98.315Y-102.971
X101.744Y-94.081
X107.649Y-108.623
X111.054Y-108.295
X138.585Y-120.663
X139.078Y-124.866
X139.596Y-120.663
X140.02Y-124.082
X140.574Y-120.663
X151.696Y-112.931
X153.086Y-73.665
T4
X110.018Y-76.221
X110.018Y-77.521
X110.018Y-78.821
X111.018Y-76.871
X111.018Y-78.171
T5
X148.41Y-73.129
T6
X82.694Y-127.101
X83.583Y-129.387
X88.79Y-108.496
X89.361Y-134.531
X120.921Y-126.72
T7
X113.574Y-81.133
X173.768Y-95.798
T8
X80.548Y-109.258
X82.516Y-109.258
X84.027Y-136.563
X84.485Y-109.258
X86.453Y-109.258
X91.343Y-109.258
X93.311Y-109.258
X95.28Y-109.258
X97.248Y-109.131
X163.944Y-95.593
X174.417Y-78.74
X175.331Y-80.894
T9
X129.426Y-118.732
X132.982Y-118.732
X189.199Y-76.431
X189.199Y-79.987
X196.088Y-90.449
X201.168Y-90.449
T10
X86.042Y-83.858
X88.582Y-83.858
X91.123Y-83.858
X93.662Y-83.858
X97.5Y-83.858
X100.04Y-83.858
X102.58Y-83.858
X105.12Y-83.858
X142.257Y-110.591
T11
X155.338Y-71.475
X157.878Y-71.475
X160.418Y-71.475
X162.958Y-71.475
X165.498Y-71.475
X165.498Y-74.333
X168.038Y-71.475
X168.038Y-74.333
X194.945Y-72.36
X194.945Y-74.9
X194.945Y-77.44
X194.945Y-79.98
X194.945Y-82.52
X194.945Y-85.06
T12
X193.873Y-88.687
T13
X92.752Y-128.755
X92.752Y-133.755
X96.086Y-128.755
X96.086Y-133.755
X99.419Y-128.755
X99.419Y-133.755
X102.752Y-128.755
X102.752Y-133.755
X106.086Y-128.755
X106.086Y-133.755
X109.419Y-128.755
X109.419Y-133.755
X112.752Y-128.755
X112.752Y-133.755
X116.086Y-128.755
X116.086Y-133.755
X119.419Y-128.755
X119.419Y-133.755
X122.752Y-128.755
X122.752Y-133.755
X126.086Y-128.755
X126.086Y-133.755
X129.419Y-128.755
X129.419Y-133.755
X132.752Y-128.755
X132.752Y-133.755
X136.086Y-128.755
X136.086Y-133.755
X161.072Y-128.755
X161.072Y-133.755
X164.406Y-128.755
X164.406Y-133.755
X167.739Y-128.755
X167.739Y-133.755
X171.072Y-128.755
X171.072Y-133.755
X174.406Y-128.755
X174.406Y-133.755
X177.739Y-128.755
X177.739Y-133.755
X181.072Y-128.755
X181.072Y-133.755
X184.406Y-128.755
X184.406Y-133.755
X187.739Y-128.755
X187.739Y-133.755
X191.072Y-128.755
X191.072Y-133.755
X194.406Y-128.755
X194.406Y-133.755
X197.739Y-128.755
X197.739Y-133.755
X201.072Y-128.755
X201.072Y-133.755
X204.406Y-128.755
X204.406Y-133.755
T2
X109.738Y-73.946G85X110.738Y-73.946
G05
X109.738Y-81.096G85X110.738Y-81.096
G05
T10
X73.386Y-92.235G85X73.386Y-91.235
G05
X75.786Y-90.235G85X75.786Y-89.235
G05
X81.286Y-90.235G85X81.286Y-89.235
G05
T0
M30
